<svg xmlns="http://www.w3.org/2000/svg" width="1440" height="250" viewBox="0 0 1440 250">
    <g fill="none" fill-rule="evenodd">
        <g fill="#F7F7FA">
            <g>
                <path d="M35.971 432.147c0 26.512-21.49 48.003-48.002 48.003-26.512 0-47.998-21.491-47.998-48.003 0-26.506 21.486-47.997 47.998-47.997 26.512 0 48.002 21.49 48.002 47.997zm1194.713-228.292c75.177 32.438 108.31 76.24 85.645 209.657-22.664 133.41-27.345 214.479 90.65 349.548 172.495 197.454 133.56 331.175 31.476 410.92-118.14 92.3-370.167 128.074-669.829-42.7-299.653-170.766-475.714-90.04-672.34-177.885-196.763-87.91-335.875-299.435-128.37-411.182 207.504-111.747 270.476-128.62 550.86-137.62 177.176-5.689 253.447-31.213 389.905-132.301 124.66-85.864 224.624-110.452 322.003-68.437z" transform="translate(0 -210) scale(-1 1) rotate(15 0 -4564.272)"/>
            </g>
        </g>
    </g>
</svg>
